<?xml version="1.0" standalone="no"?>
<!DOCTYPE svg PUBLIC "-//W3C//DTD SVG 20010904//EN"
 "http://www.w3.org/TR/2001/REC-SVG-20010904/DTD/svg10.dtd">
<svg version="1.0" xmlns="http://www.w3.org/2000/svg"
 width="833.000000pt" height="966.000000pt" viewBox="0 0 833.000000 966.000000"
 preserveAspectRatio="xMidYMid meet">

<g transform="translate(0.000000,966.000000) scale(0.100000,-0.100000)"
fill="#000000" stroke="none">
<path d="M3706 9373 c-9 -54 -27 -161 -40 -238 -13 -77 -35 -201 -49 -275 -57
-307 -88 -609 -89 -863 -1 -162 2 -234 16 -305 40 -220 189 -486 426 -762 180
-210 428 -391 630 -462 103 -36 425 -115 518 -128 122 -17 358 -8 472 19 182
42 327 122 430 238 24 27 65 94 92 149 40 81 53 123 68 210 48 279 36 563 -46
1049 -89 528 -78 488 -144 530 -54 34 -307 161 -370 185 -193 76 -412 150
-440 150 -10 0 -33 6 -51 14 -19 7 -53 16 -77 19 l-43 5 6 -190 c3 -105 10
-232 15 -282 5 -50 12 -206 15 -346 6 -247 6 -256 -14 -288 -57 -90 -205 -75
-295 29 -20 23 -39 58 -42 78 -9 45 3 393 16 491 6 41 15 129 21 195 5 66 16
163 23 215 7 52 11 101 8 108 -2 7 -25 24 -51 39 -25 14 -53 33 -62 40 -9 8
-86 51 -170 97 -85 46 -188 102 -229 126 -78 44 -131 72 -285 144 -172 82
-225 106 -234 106 -4 0 -15 -44 -25 -97z"/>
<path d="M3040 9328 c-25 -12 -138 -68 -253 -125 -114 -57 -212 -103 -218
-103 -6 0 -41 -17 -77 -39 -37 -21 -134 -73 -217 -116 -82 -43 -186 -99 -230
-125 -44 -26 -129 -73 -190 -104 -60 -31 -116 -63 -125 -70 -14 -12 -104 -62
-238 -133 -34 -18 -86 -50 -115 -71 -66 -48 -168 -112 -227 -142 -44 -22 -245
-175 -270 -205 -15 -18 -34 -157 -54 -390 -9 -99 -18 -202 -21 -230 -7 -65 4
-84 37 -63 62 41 549 229 768 297 122 38 257 67 267 57 3 -3 -7 -40 -21 -83
-24 -71 -40 -95 -174 -260 -245 -301 -464 -617 -614 -883 -36 -63 -88 -156
-117 -206 -36 -66 -51 -102 -51 -130 0 -21 11 -130 25 -243 13 -113 29 -264
35 -336 7 -71 17 -173 23 -227 l12 -96 152 102 c84 57 205 133 270 170 65 38
129 78 143 91 14 13 84 50 155 83 72 33 157 76 189 96 33 20 64 36 68 36 12 0
285 109 329 131 20 10 83 29 140 44 57 14 133 36 169 49 36 13 123 34 194 46
71 13 143 28 160 35 17 7 72 16 121 20 50 4 119 14 155 22 36 7 80 16 98 20
21 4 32 11 32 23 0 10 -7 163 -15 341 -15 326 -25 446 -50 594 -7 44 -16 104
-20 133 l-7 54 -42 -6 c-22 -3 -88 -11 -146 -16 -173 -17 -428 -63 -564 -100
-39 -11 -101 -20 -138 -20 l-67 0 25 72 c28 83 76 138 245 282 417 354 549
478 610 574 33 53 35 73 14 180 -31 156 -36 189 -46 282 -11 105 -27 349 -37
565 -8 160 -9 162 -92 123z"/>
<path d="M3271 7912 c-59 -13 -73 -22 -156 -96 -50 -44 -148 -130 -218 -190
-70 -60 -125 -111 -123 -114 2 -2 42 3 88 12 45 8 163 23 261 33 165 16 182
16 223 1 41 -15 44 -15 39 1 -13 42 -28 136 -38 247 l-12 120 -64 -14z"/>
<path d="M3474 7305 c27 -141 47 -371 62 -709 l18 -392 -25 -44 c-28 -51 -73
-81 -138 -92 -25 -4 -68 -12 -96 -18 -27 -6 -97 -15 -155 -21 -58 -5 -121 -16
-140 -23 -19 -7 -91 -23 -160 -35 -69 -12 -140 -29 -158 -36 -17 -8 -87 -29
-155 -46 -67 -16 -135 -37 -152 -45 -33 -17 -352 -144 -361 -144 -3 0 -20 -11
-37 -24 -18 -13 -88 -50 -157 -81 -69 -31 -134 -65 -145 -75 -21 -18 -124 -81
-230 -140 -33 -18 -132 -83 -220 -143 -88 -61 -175 -114 -193 -118 -48 -10
-127 12 -164 47 -40 38 -58 82 -58 141 0 26 -4 64 -10 83 -7 26 -50 476 -50
523 0 50 -95 -144 -184 -376 -346 -899 -333 -1932 35 -2827 504 -1228 1613
-2117 2912 -2335 249 -41 359 -50 652 -49 300 0 443 12 705 60 531 97 1069
324 1510 638 l85 61 -74 7 c-97 10 -249 47 -402 99 -138 46 -526 198 -719 282
l-125 54 -12 -59 c-21 -104 -75 -166 -195 -223 -168 -81 -404 -70 -501 23
l-27 26 7 -34 c5 -19 8 -87 8 -150 0 -110 -1 -119 -33 -182 -62 -127 -222
-246 -388 -288 -193 -50 -372 -1 -515 140 -143 142 -161 279 -74 576 7 21 6
21 -47 7 -69 -18 -238 -20 -308 -4 -127 31 -209 92 -253 190 -26 58 -28 194
-3 295 9 39 59 183 111 321 125 330 125 343 1 442 -516 417 -792 1046 -746
1697 68 945 781 1710 1716 1841 128 18 393 21 520 5 442 -55 852 -256 1171
-576 326 -326 527 -755 572 -1218 6 -60 11 -137 11 -171 l0 -61 74 -17 c239
-52 381 -225 342 -417 -23 -108 -94 -194 -207 -248 l-56 -27 164 -515 c262
-826 318 -1020 353 -1223 11 -66 20 -151 20 -190 l0 -71 46 44 c75 72 243 267
325 375 430 570 682 1197 765 1910 25 209 25 644 0 845 -20 171 -57 376 -92
515 -212 849 -714 1604 -1419 2137 l-80 61 -6 -124 c-7 -133 -30 -289 -55
-379 -9 -30 -41 -103 -71 -162 -145 -282 -431 -450 -828 -486 -106 -10 -306
-1 -415 18 -76 13 -415 102 -480 125 -182 66 -393 200 -549 350 -143 136 -345
388 -433 538 -90 155 -90 156 -84 122z"/>
<path d="M4288 5249 c-481 -47 -944 -300 -1223 -671 -173 -228 -268 -473 -295
-758 -31 -319 47 -676 221 -1009 116 -222 125 -240 139 -299 17 -72 11 -101
-61 -287 -34 -88 -82 -218 -107 -290 -44 -122 -46 -136 -47 -235 0 -94 2 -108
23 -138 47 -65 153 -97 301 -90 163 9 266 65 292 160 6 24 12 122 14 218 2
153 5 182 24 232 44 114 132 151 205 88 49 -43 70 -111 64 -209 -5 -85 -13
-104 -117 -276 -160 -264 -221 -419 -229 -582 -4 -96 -3 -106 22 -157 46 -95
162 -174 287 -197 195 -36 459 114 500 285 15 63 6 174 -20 251 -12 33 -55
130 -96 215 -76 158 -95 220 -95 318 0 105 71 177 184 189 102 10 181 -38 207
-128 10 -33 9 -57 -10 -152 -50 -260 -11 -377 136 -407 142 -30 342 33 390
122 14 27 17 53 15 140 -2 60 -1 108 1 108 40 0 144 -35 297 -100 457 -193
739 -298 933 -346 120 -30 283 -42 344 -25 186 51 187 295 3 906 -28 94 -130
420 -227 725 -122 382 -177 570 -177 603 l-1 47 82 34 c45 18 97 45 116 59 81
61 100 183 42 266 -54 78 -152 125 -290 138 -93 8 -107 24 -185 211 -70 166
-96 215 -189 357 -89 137 -290 338 -426 428 -313 206 -667 293 -1047 256z
m-170 -599 c162 -86 238 -269 210 -505 -12 -108 -38 -192 -97 -311 -127 -258
-338 -445 -571 -504 -158 -41 -282 -10 -386 94 -85 86 -114 160 -121 316 -4
94 -2 130 15 200 31 131 74 230 144 337 134 204 270 318 468 390 56 20 80 23
170 20 98 -2 110 -5 168 -37z m2003 -1365 c38 -115 69 -218 69 -227 0 -18 -55
-39 -153 -57 -49 -9 -49 -8 -62 23 -8 17 -37 65 -65 106 l-50 75 32 3 c93 7
120 15 153 44 30 26 35 36 35 75 0 40 -5 50 -55 102 -30 32 -55 61 -55 65 0 4
18 6 41 4 l41 -3 69 -210z m89 -289 c0 -12 -34 -184 -51 -259 -17 -73 -24 -88
-42 -92 -34 -6 -157 -17 -157 -13 0 2 9 31 21 63 19 55 30 198 18 243 -3 9 23
21 81 37 81 22 130 30 130 21z m69 -202 c17 -53 29 -100 26 -104 -5 -7 -83
-30 -104 -30 -6 0 -11 9 -11 21 0 32 43 209 51 209 3 0 21 -43 38 -96z m88
-276 c34 -108 41 -142 36 -180 -3 -26 -11 -52 -17 -57 -13 -11 -263 -61 -306
-61 -28 0 -29 1 -19 28 6 15 33 101 60 192 27 90 53 168 58 173 8 8 101 34
131 36 12 1 27 -35 57 -131z m-895 66 c23 -20 67 -50 96 -66 44 -26 52 -34 46
-52 -19 -65 -96 -262 -109 -283 -15 -23 -17 -23 -200 -23 -101 0 -186 4 -189
8 -9 15 10 31 54 47 61 21 106 59 132 108 19 35 23 62 26 170 l4 127 48 0 c41
0 55 -6 92 -36z m648 8 c0 -21 -39 -161 -81 -290 -25 -73 -35 -93 -52 -97 -32
-6 -355 -35 -401 -35 -32 0 -37 3 -33 18 3 9 29 79 58 155 l52 137 42 0 c62 0
128 27 180 72 41 36 53 41 118 48 116 12 117 12 117 -8z m360 -434 c18 -57 36
-116 41 -132 5 -15 7 -32 4 -36 -4 -6 -78 -29 -146 -44 l-26 -6 33 133 c18 72
35 144 39 160 3 15 10 27 15 27 5 0 23 -46 40 -102z m-100 60 c0 -24 -51 -224
-68 -269 -7 -18 -21 -28 -44 -33 -73 -15 -324 -56 -345 -56 l-23 0 27 58 c14
31 44 102 67 156 l41 100 125 22 c69 12 143 27 165 32 56 14 55 14 55 -10z
m-390 -52 c0 -23 -126 -302 -140 -311 -23 -14 -470 -47 -470 -34 0 3 34 74 75
156 84 169 75 162 204 164 36 0 111 6 166 13 108 14 165 18 165 12z m-961 -45
c11 -7 5 -25 -30 -92 -24 -45 -49 -84 -55 -86 -12 -4 -34 68 -34 111 0 13 4
36 10 50 8 22 15 26 52 26 24 0 49 -4 57 -9z m445 -13 c-10 -34 -113 -239
-136 -270 -19 -28 -20 -28 -139 -28 -108 0 -126 3 -175 26 -38 18 -54 31 -54
45 0 10 22 58 49 106 28 49 57 100 65 116 l15 27 191 0 191 0 -7 -22z m1080
-210 c29 -102 38 -148 33 -162 -6 -14 -162 -69 -287 -101 -36 -9 -73 -19 -84
-22 -16 -4 -13 6 18 63 20 38 51 104 70 146 33 74 36 77 78 88 23 6 63 18 88
25 67 20 68 19 84 -37z m-274 -31 c0 -17 -79 -180 -113 -234 -23 -37 -30 -41
-104 -57 -199 -44 -325 -58 -338 -36 -4 6 2 25 13 43 11 18 47 77 81 132 l61
100 178 31 c210 37 222 38 222 21z m-480 -114 c-18 -32 -52 -89 -77 -126 -51
-80 -27 -81 -238 9 -194 83 -184 77 -159 111 21 28 22 28 197 40 97 6 187 14
199 16 13 2 43 5 66 6 l44 1 -32 -57z m807 -90 c4 -16 7 -59 7 -98 1 -67 0
-70 -27 -83 -49 -24 -248 -70 -352 -82 -80 -9 -109 -8 -144 2 l-44 13 39 46
c21 25 48 58 59 73 17 22 46 35 170 71 83 24 175 53 205 64 73 26 78 26 87 -6z
m-525 -150 c-11 -15 -33 -41 -50 -56 l-29 -28 -84 32 c-46 18 -77 35 -69 37
23 8 245 48 249 46 2 -2 -6 -15 -17 -31z m528 -81 c0 -9 -11 -34 -25 -54 -41
-60 -140 -73 -292 -37 -56 13 -71 29 -28 29 39 0 170 29 249 55 88 29 96 29
96 7z"/>
<path d="M3682 2032 c-7 -22 -12 -73 -12 -113 l1 -74 26 49 c20 40 24 60 21
103 -6 71 -21 85 -36 35z"/>
<path d="M4252 1875 c-18 -8 -35 -22 -39 -31 -13 -35 15 -155 59 -246 l43 -91
12 99 c7 54 19 129 27 166 17 77 14 96 -21 109 -32 12 -41 11 -81 -6z"/>
</g>
</svg>
